<?xml version="1.0" encoding="UTF-8" standalone="no"?>
<svg
   xmlns:dc="http://purl.org/dc/elements/1.1/"
   xmlns:cc="http://creativecommons.org/ns#"
   xmlns:rdf="http://www.w3.org/1999/02/22-rdf-syntax-ns#"
   xmlns:svg="http://www.w3.org/2000/svg"
   xmlns="http://www.w3.org/2000/svg"
   viewBox="0 0 340 309.33334"
   height="309.33334"
   width="340"
   xml:space="preserve"
   id="svg2"
   version="1.1"><metadata
     id="metadata8"><rdf:RDF><cc:Work
         rdf:about=""><dc:format>image/svg+xml</dc:format><dc:type
           rdf:resource="http://purl.org/dc/dcmitype/StillImage" /></cc:Work></rdf:RDF></metadata><defs
     id="defs6" /><g
     transform="matrix(1.3333333,0,0,-1.3333333,0,309.33333)"
     id="g10"><g
       transform="scale(0.1)"
       id="g12"><path
         id="path14"
         style="fill:#009cb3;fill-opacity:1;fill-rule:evenodd;stroke:none"
         d="m 1233.98,2045 c -9.64,-15 -21.48,-25 -35.5,-30 -13.99,-5 -27,-3.98 -38.99,3.01 -11.33,7.65 -17.85,19.02 -19.49,34.02 -1.33,14.65 2.5,29.65 11.48,45 9.69,14.65 21.53,24.49 35.51,29.49 13.99,5 26.99,3.99 38.99,-3 11.36,-7.66 17.85,-18.83 19.53,-33.52 1.64,-15 -2.19,-30 -11.53,-45 m 352.5,-658.48 c 36.68,44.34 65.36,94.14 86.02,149.5 20.31,55 30.66,113.51 30.98,175.5 -0.32,70.32 -13.48,136.18 -39.5,197.5 -25.97,60.98 -61.99,114.85 -108,161.49 -46.33,46.68 -99.81,83.16 -160.47,109.49 -60.67,26.68 -126.17,40.66 -196.53,42.03 -16.99,-19.69 -32.5,-43.01 -46.48,-70 -14.34,-27.03 -25.16,-54.02 -32.5,-81.01 -7.66,-26.68 -10.16,-50.16 -7.5,-70.51 2.66,-20.31 12.15,-33.67 28.48,-40 11.01,-3.32 24.33,0.15 40,10.51 15.35,10.35 33.86,24.18 55.5,41.48 21.68,17.03 47,34.02 76.02,51.02 28.67,16.99 61.48,30.5 98.48,40.5 -42.97,-25 -82,-56.52 -117,-94.49 -35,-38.36 -62.81,-83.01 -83.47,-134.02 -20.35,-50.98 -30.2,-108.01 -29.53,-170.98 0.35,-63.01 14.53,-131.68 42.5,-206.01 28,-74.34 73,-154.18 135,-239.5 -43.32,28.01 -81.49,59.65 -114.5,95 -32.65,35.67 -61.32,72.15 -85.97,109.5 -24.69,37.34 -46.37,72.65 -65,106.01 2.65,-37.34 3.16,-74.84 1.48,-112.5 -1.33,-38.01 -6.01,-76.52 -13.98,-115.51 -8.01,-38.67 -20.51,-78 -37.5,-118 47.65,-14.65 97.65,-22.15 150,-22.5 46.33,0.35 90.82,6.32 133.47,18 42.35,11.64 82.35,28.17 120,49.5 -28,23.32 -56.17,53.32 -84.49,90 -28.67,36.99 -55,78.51 -78.98,124.49 -23.67,46.01 -42.03,94.49 -55,145.51 -13.01,51.01 -18.01,102.14 -15,153.51 3.32,51.33 17.65,100.82 42.97,148.48 -17,-51.64 -23.99,-103.01 -20.98,-153.99 3.32,-51.01 13.67,-100.35 30.98,-148 17.34,-47.66 38.86,-92.35 64.53,-133.99 25.66,-41.68 52.81,-79.18 81.48,-112.5 28.32,-33.36 55.16,-61.17 80.51,-83.51 20,14.33 38.83,30.15 56.48,47.5 -43.32,27.65 -82.5,60.82 -117.5,99.49 -35,39.02 -66.32,84.69 -93.98,136.99 -28.01,52.7 -52.85,113.01 -74.49,181.02 28.32,-61.68 59.65,-116.02 93.98,-163.01 33.99,-46.64 70.35,-87.5 108.99,-122.5 38.67,-35 78.86,-65.51 120.5,-91.49" /><path
         id="path16"
         style="fill:#2b7d2e;fill-opacity:1;fill-rule:evenodd;stroke:none"
         d="m 920.512,1438.01 c -6.684,55.35 -13.172,111.33 -19.532,168.01 -5.98,56.68 -8.832,113.98 -8.48,171.99 0.66,58.01 7.66,116.68 20.98,176.01 13.668,59.34 36.829,119.5 69.532,180.51 32.648,60.98 77.968,122.81 135.968,185.47 -81.99,-68.63 -145.82,-136.33 -191.48,-202.97 -45.352,-66.68 -74.691,-134.84 -88.012,-204.53 -13.316,-70 -12.648,-143.83 1.992,-221.48 14.692,-78.01 41.02,-162.35 79.032,-253.01 M 1124.49,2225 c -37.65,-47.97 -65.82,-95.98 -84.49,-143.98 -18.36,-48.32 -30,-96.49 -35,-144.5 -5,-48.36 -6.172,-96.83 -3.52,-145.5 2.66,-48.68 6.18,-97.86 10.51,-147.5 4.65,-49.34 7.15,-99.18 7.5,-149.5 0.67,-50.35 -3.67,-101.32 -13.01,-153 -9.332,-51.33 -26.32,-103.68 -50.968,-157 -24.692,-53 -60.203,-106.83 -106.532,-161.52 29.692,64.02 51.68,124.84 66.02,182.5 14.34,58.01 23.32,113.36 26.988,166.02 3.672,52.65 4.653,103.32 3.012,151.99 -1.988,49.02 -4.18,96.83 -6.52,143.51 -2,46.33 -2,92.15 0,137.5 2.34,45.32 9.329,90.82 21.008,136.49 11.684,45.66 30.672,91.99 56.992,139.02 26.02,46.99 62,95.47 108.01,145.47" /><path
         id="path18"
         style="fill:#009cb4;fill-opacity:1;fill-rule:nonzero;stroke:none"
         d="m 258.051,592.578 h 14.527 L 263.051,521.02 H 8.05078 v 13.429 c 8.93752,-0.929 17.33982,0.86 25.14842,5.473 7.8906,4.687 11.8789,11.019 11.8789,19.058 v 272.04 c 0,6.32 -7.5,11.171 -22.5,14.531 -5,0.929 -12.5,2.07 -22.499975,3.429 v 12.969 H 138.98 v -11.871 c -14.289,-1.367 -24.761,-3.047 -31.402,-5 -11.6796,-3.359 -17.4999,-8.199 -17.4999,-14.527 V 560.078 c 0,-5 1.4414,-9.527 4.3711,-13.598 3.0117,-3.98 7.0308,-5.929 12.0308,-5.929 h 92.969 c 16.02,0 29.071,4.609 39.071,13.898 10,9.379 16.48,22.071 19.531,38.129 z m 318.121,-60 V 521.02 H 497.27 v 42.031 c -16.059,-13.672 -31.879,-27.153 -47.5,-40.473 -9.379,-4.379 -22.93,-6.558 -40.629,-6.558 -17.301,0 -32.621,4.679 -45.942,14.058 -14.679,10.313 -22.027,23.281 -22.027,38.902 v 137.5 c 0,5.711 -3.051,9.61 -9.063,11.719 -5.937,2.192 -13.089,3.281 -21.41,3.281 -2.301,0 -4.488,0 -6.558,0 -0.313,0 -0.621,-0.152 -0.942,-0.46 v 12.031 l 80,20.469 2.031,-5 V 581.48 c 0,-10.621 4.571,-19.371 13.75,-26.25 9.141,-6.789 19.571,-10.152 31.25,-10.152 15.321,0 30.321,5.043 45,15.152 14.692,10.2 22.04,20.981 22.04,32.348 v 116.871 c 0,5 -2.782,8.481 -8.29,10.473 -5.539,2.066 -12.14,3.129 -19.839,3.129 -3.36,0 -6.68,-0.16 -10,-0.473 -0.942,0 -2.262,-0.238 -3.911,-0.629 v 11.102 l 82.969,20.469 4.071,-5 v -200 c 0,-6.68 5.621,-11.372 16.871,-14.071 3.75,-0.621 9.41,-1.25 17.031,-1.871 z" /><path
         id="path20"
         style="fill:#009cb4;fill-opacity:1;fill-rule:nonzero;stroke:none"
         d="m 689.922,736.02 h 63.437 l -5,-23.442 H 689.922 V 573.52 c 0,-8.051 2.269,-14.071 6.879,-18.129 4.679,-3.981 10.699,-5.942 18.121,-5.942 10.937,0 20.777,2.192 29.527,6.571 l 7.973,-7.5 c -8.672,-8.989 -17.344,-17.821 -26.094,-26.571 -3.668,-2.57 -12.457,-3.898 -26.406,-3.898 -13.672,0 -25.152,3.16 -34.531,9.527 -11.051,7.582 -16.563,18.442 -16.563,32.5 v 152.5 h -33.437 v 7.5 l 33.437,15.942 v 70 l 41.094,20.46 z" /><path
         id="path22"
         style="fill:#009cb4;fill-opacity:1;fill-rule:nonzero;stroke:none"
         d="m 979.84,590.551 h 14.539 L 987.34,521.02 H 774.379 l -0.469,10.46 159.059,196.571 H 827.34 c -6.988,0 -11.988,-4.961 -15,-14.852 -2.93,-9.801 -4.371,-20.23 -4.371,-31.25 h -12.028 l 5.938,67.5 H 988.441 L 987.34,731.02 835.469,540.551 H 952.34 c 8.75,0 15.39,5.66 20,17.027 3.012,7.262 5.512,18.281 7.5,32.973 z" /><path
         id="path24"
         style="fill:#009cb4;fill-opacity:1;fill-rule:nonzero;stroke:none"
         d="m 1378.98,558.98 2.04,-12.5 c -3.75,-1.992 -10.79,-6.992 -21.1,-15 -15.31,-11.64 -28.12,-17.5 -38.44,-17.5 -14.06,0 -29.76,4.18 -47.03,12.5 -13.04,6.329 -26.36,14.692 -40,25 -11.99,-8.039 -21.83,-14.019 -29.53,-17.96 -24.3,-12.309 -46.4,-18.442 -66.4,-18.442 -30,0 -54.85,9.141 -74.54,27.5 -19.68,18.32 -29.53,40.973 -29.53,67.973 0,20 7.35,39.609 22.03,58.898 13.01,17.071 30.36,32.071 52.04,45 -3.75,12.699 -6.64,23.36 -8.6,32.031 -3.04,13.321 -4.53,24.54 -4.53,33.598 0,18.942 8.83,37.582 26.56,55.942 17.7,18.32 36.17,27.5 55.47,27.5 12.38,0 22.54,-4.848 30.47,-14.54 8.01,-9.679 12.03,-20.39 12.03,-32.031 0,-17.929 -7.5,-36.25 -22.5,-55 -11.99,-15 -27.65,-28.668 -47.03,-40.929 l 22.5,-40 c 10.39,-14.379 22.58,-29.219 36.56,-44.54 13.01,-14.289 26.64,-28.082 40.94,-41.402 16.02,15.942 24.06,34.57 24.06,55.942 0,6.64 -0.54,12.652 -1.56,17.96 -0.94,5.321 -2.93,10.981 -5.94,17.04 -8.04,1.64 -16.05,3.039 -24.06,4.21 -7.93,1.141 -15.23,1.719 -21.87,1.719 0.62,3.75 2.57,7.891 5.93,12.5 3.32,4.692 5.82,8.36 7.5,11.102 h 142.03 l -4.06,-28.602 h -69.53 l 1.56,-17.969 c 0,-15.929 -3.51,-31.25 -10.47,-45.929 -6.99,-14.692 -16.68,-28.211 -29.06,-40.473 13.63,-9.058 26.29,-16.098 37.97,-21.098 15,-6.359 28.99,-9.531 42.03,-9.531 4.69,0 10.67,0.981 17.97,2.973 7.38,2.066 12.73,3.437 16.09,4.058 z m -236.09,176.098 c 10.7,7.262 20.39,16.91 29.06,28.902 10.63,14.692 15.94,27.86 15.94,39.54 0,7.691 -2.42,15.031 -7.19,22.031 -4.8,6.949 -10.9,10.469 -18.28,10.469 -2.3,0 -3.98,-0.161 -5,-0.469 -10,-2 -17.34,-6.531 -22.03,-13.602 -4.61,-6.988 -6.87,-15.469 -6.87,-25.469 0,-9.289 1.44,-19.601 4.37,-30.929 3.01,-11.371 6.33,-21.531 10,-30.473 z m 76.09,-173.129 -56.56,63.602 -45,68.429 c -13.04,-7.609 -23.12,-17.769 -30.31,-30.46 -7.11,-12.739 -10.63,-26.219 -10.63,-40.469 0,-22.43 8.95,-41.961 26.88,-58.602 18.01,-16.679 38.52,-25 61.56,-25 8.63,0 17.7,2.071 27.19,6.25 9.57,4.141 18.51,9.571 26.87,16.25 z" /><path
         id="path26"
         style="fill:#009cb4;fill-opacity:1;fill-rule:nonzero;stroke:none"
         d="m 1670.16,592.578 h 14.53 l -9.53,-71.558 h -255 v 13.429 c 8.94,-0.929 17.34,0.86 25.15,5.473 7.89,4.687 11.88,11.019 11.88,19.058 v 272.04 c 0,6.32 -7.5,11.171 -22.5,14.531 -5,0.929 -12.5,2.07 -22.5,3.429 v 12.969 h 138.9 v -11.871 c -14.29,-1.367 -24.76,-3.047 -31.4,-5 -11.68,-3.359 -17.5,-8.199 -17.5,-14.527 V 560.078 c 0,-5 1.44,-9.527 4.37,-13.598 3.01,-3.98 7.03,-5.929 12.03,-5.929 h 92.97 c 16.02,0 29.06,4.609 39.06,13.898 10,9.379 16.49,22.071 19.54,38.129 z" /><path
         id="path28"
         style="fill:#009cb4;fill-opacity:1;fill-rule:nonzero;stroke:none"
         d="m 1842.34,753.52 c 33.95,0 61.45,-9.848 82.5,-29.54 23.32,-21.992 35,-53.281 35,-93.902 0,-29.379 -10.15,-55.59 -30.46,-78.598 -22.74,-25.621 -51.72,-38.429 -87.04,-38.429 -38.04,0 -67.89,12.648 -89.53,37.969 -18.67,21.64 -27.97,48 -27.97,79.058 0,41.25 11.29,72.543 33.91,93.902 20.7,19.692 48.59,29.54 83.59,29.54 z m 73.91,-123.442 c 0,25.621 -5.86,48.75 -17.5,69.371 -13.98,25 -32.77,37.5 -56.41,37.5 -22.73,0 -41.05,-12.301 -55,-36.871 -12.42,-21.68 -18.59,-45 -18.59,-70 0,-35.43 7.03,-61.637 21.09,-78.598 12.58,-15.308 30.08,-22.96 52.5,-22.96 22.27,0 39.77,7.5 52.5,22.5 14.26,16.949 21.41,43.32 21.41,79.058 z" /><path
         id="path30"
         style="fill:#009cb4;fill-opacity:1;fill-rule:nonzero;stroke:none"
         d="m 2073.71,736.02 h 63.44 l -5,-23.442 h -58.44 V 573.52 c 0,-8.051 2.27,-14.071 6.88,-18.129 4.68,-3.981 10.7,-5.942 18.12,-5.942 10.94,0 20.78,2.192 29.53,6.571 l 7.97,-7.5 c -8.67,-8.989 -17.34,-17.821 -26.09,-26.571 -3.67,-2.57 -12.46,-3.898 -26.41,-3.898 -13.67,0 -25.16,3.16 -34.53,9.527 -11.06,7.582 -16.56,18.442 -16.56,32.5 v 152.5 h -33.44 v 7.5 l 33.44,15.942 v 70 l 41.09,20.46 z" /><path
         id="path32"
         style="fill:#009cb4;fill-opacity:1;fill-rule:nonzero;stroke:none"
         d="m 2239.73,736.02 h 63.43 l -5,-23.442 h -58.43 V 573.52 c 0,-8.051 2.26,-14.071 6.87,-18.129 4.69,-3.981 10.7,-5.942 18.13,-5.942 10.93,0 20.78,2.192 29.53,6.571 l 7.97,-7.5 c -8.68,-8.989 -17.35,-17.821 -26.1,-26.571 -3.67,-2.57 -12.46,-3.898 -26.4,-3.898 -13.68,0 -25.16,3.16 -34.53,9.527 -11.06,7.582 -16.57,18.442 -16.57,32.5 v 152.5 h -33.43 v 7.5 l 33.43,15.942 v 70 l 41.1,20.46 z" /><path
         id="path34"
         style="fill:#009cb4;fill-opacity:1;fill-rule:nonzero;stroke:none"
         d="m 2455.27,753.52 c 24.57,-3.051 44.73,-13.36 60.47,-30.942 14.26,-16.058 24.42,-37.418 30.47,-64.058 l -60.47,-21.571 h -108.59 c 0,-21.988 5.66,-42.301 17.03,-60.929 13.01,-21.372 29.22,-32.899 48.59,-34.54 2.27,-0.308 4.57,-0.46 6.88,-0.46 2.07,0 4.26,0 6.56,0 13.01,0 24.84,1.48 35.47,4.531 10.7,3 23.05,7.847 37.03,14.527 l 2.97,-4.058 c -4.69,-13.68 -14.02,-24.18 -27.97,-31.571 -12.3,-6.25 -27.15,-9.371 -44.53,-9.371 -36.99,0 -66.99,9.301 -90,27.973 -26.37,21.328 -39.53,52.027 -39.53,92.027 0,30.942 10.39,58.512 31.25,82.813 20.82,24.379 47.07,36.558 78.75,36.558 1.64,0 3.83,-0.109 6.56,-0.308 2.7,-0.121 5.7,-0.313 9.06,-0.621 z m -77.03,-97.5 h 120.94 c 0.31,3 0.47,5.191 0.47,6.558 0,17.582 -4.49,33.75 -13.44,48.442 -10.31,16.64 -23.12,25 -38.44,25 -26.05,0 -44.76,-8.211 -56.09,-24.54 -8.98,-13.039 -13.44,-31.519 -13.44,-55.46 z" /><path
         id="path36"
         style="fill:#2d7d2f;fill-opacity:1;fill-rule:nonzero;stroke:none"
         d="m 366.25,142.809 c 13.949,-2.5 25.309,-8.829 34.059,-18.899 8.75,-10 13.132,-22.109 13.132,-36.2498 0,-25.5508 -10.941,-45.8594 -32.82,-60.9414 -19.922,-13.75 -43.242,-20.62896 -70,-20.62896 -9.801,0 -19.211,0.94141 -28.281,2.82032 -8.981,1.75004 -19.289,4.67964 -30.93,8.75004 0.93,6.0117 1.602,13.1992 2.031,21.5586 0.508,8.4414 0.778,16.4804 0.778,24.2226 h 9.531 c 0,-14.3008 5.352,-25 16.09,-32.1914 9.07,-6.0508 21.18,-9.0586 36.41,-9.0586 20.309,0 36.449,4.6875 48.441,14.0586 11.95,9.4492 17.969,22.0313 17.969,37.6602 0,10.3086 -2.93,19.289 -8.75,27.0308 -6.488,8.629 -15.43,13.75 -26.879,15.309 L 286.09,125 c -12.418,1.879 -21.828,7.969 -28.281,18.281 -6.36,10.391 -9.528,22.739 -9.528,37.028 0,21.961 9.219,40.203 27.66,54.691 17.258,13.441 37.219,20.16 59.84,20.16 10.309,0 20.629,-1.371 30.938,-4.07 10.39,-2.61 20.781,-6.36 31.09,-11.25 -3.75,-13.981 -6.36,-27.141 -7.809,-39.531 h -6.559 c 0,7.191 -1.211,14.89 -3.601,23.132 -5.11,6.25 -11.481,10.969 -19.059,14.219 -7.621,3.32 -15.941,5 -25,5 -15.429,0 -29.062,-5.39 -40.941,-16.101 -11.871,-10.739 -17.809,-22.887 -17.809,-36.399 0,-8.68 1.449,-16.328 4.379,-22.969 2.891,-6.679 7.969,-10.711 15.149,-12.031 z M 527.5,172.34 c 17.27,-2.18 31.41,-9.449 42.34,-21.719 10,-11.242 17.109,-26.211 21.41,-44.84 L 548.91,90.7813 h -76.101 c 0,-15.4297 3.992,-29.6915 12.031,-42.8125 9.07,-14.918 20.359,-22.9297 33.91,-24.0586 1.641,-0.2383 3.281,-0.3204 4.84,-0.3204 1.449,0 2.969,0 4.531,0 9.149,0 17.43,1.0196 24.848,3.129 7.5,2.0703 16.133,5.4726 25.941,10.1601 l 2.18,-2.8203 c -3.36,-9.6094 -9.918,-16.9492 -19.68,-22.0273 -8.68,-4.44927 -19.031,-6.72271 -31.101,-6.72271 -25.93,0 -46.95,6.57031 -62.969,19.69141 -18.43,14.8789 -27.649,36.332 -27.649,64.3789 0,21.6411 7.258,40.9731 21.868,57.9611 14.57,17.07 32.89,25.629 55,25.629 1.25,0 2.82,-0.078 4.691,-0.16 1.871,-0.11 3.949,-0.27 6.25,-0.469 z m -53.91,-68.281 h 84.691 c 0.199,2.07 0.309,3.601 0.309,4.531 0,12.39 -3.121,23.68 -9.371,33.91 -7.309,11.641 -16.328,17.5 -27.028,17.5 -18.132,0 -31.211,-5.738 -39.222,-17.191 -6.25,-9.059 -9.379,-21.989 -9.379,-38.75 z" /><path
         id="path38"
         style="fill:#2d7d2f;fill-opacity:1;fill-rule:nonzero;stroke:none"
         d="M 805.82,17.6602 V 9.53125 H 749.102 V 119.059 c 0,9.382 -4.024,17.031 -12.032,22.972 -7.929,5.938 -16.992,8.91 -27.191,8.91 -10.539,0 -20.149,-3.211 -28.899,-9.531 -8.75,-6.25 -13.128,-14.379 -13.128,-24.379 V 30.9414 c 0,-5.8594 2.347,-9.6914 7.027,-11.5625 2.82,-1.1797 7.82,-1.7187 15,-1.7187 2.582,0 4.57,0 5.941,0 V 9.53125 h -85 v 8.12895 c 6.25,0.1914 10.942,0.6211 14.059,1.25 9.262,2.1796 13.91,5.9296 13.91,11.25 V 138.75 c 0,3.441 -1.801,6.02 -5.309,7.809 -3.441,1.761 -7.742,2.66 -12.82,2.66 -3.75,0 -7.262,-0.387 -10.461,-1.098 v 9.07 c 18.821,2.809 37.102,7.379 54.84,13.75 l 2.813,-3.601 v -26.559 c 6.949,6.949 12.699,12.11 17.187,15.469 13.512,10.199 25.781,15.309 36.723,15.309 14.879,0 27.687,-3.59 38.437,-10.778 12.18,-8.242 18.281,-18.98 18.281,-32.191 V 28.4414 c 0,-3.5625 2.11,-6.25 6.399,-8.1328 4.383,-1.7891 11.332,-2.6484 20.941,-2.6484 z" /><path
         id="path40"
         style="fill:#2d7d2f;fill-opacity:1;fill-rule:nonzero;stroke:none"
         d="m 862.539,245.781 c 5.191,0 9.531,-1.871 12.973,-5.621 3.508,-3.75 5.308,-8.398 5.308,-13.91 0,-5.23 -1.871,-9.609 -5.621,-13.129 -3.75,-3.43 -8.289,-5.152 -13.597,-5.152 -5.43,0 -9.922,1.871 -13.442,5.621 -3.43,3.75 -5.148,8.441 -5.148,14.07 0,5.07 1.867,9.371 5.617,12.809 3.75,3.511 8.359,5.312 13.91,5.312 z M 904.262,17.6602 V 9.53125 H 823.48 v 8.12895 c 1.559,0 2.809,0 3.75,0 5.622,0 10.622,0.539 15,1.7187 4.45,1.1328 6.719,3.5899 6.719,7.3399 V 133.441 c 0,5.309 -1.84,9.098 -5.469,11.399 -3.558,2.39 -8.402,3.601 -14.531,3.601 -1.57,0 -4.027,-0.242 -7.347,-0.632 v 8.75 c 9.378,1.332 18.668,3.171 27.968,5.472 9.379,2.379 18.481,5.348 27.34,8.91 l 2.82,-3.601 V 26.4102 c 0,-4.3008 2.891,-7 8.75,-8.1289 2.379,-0.4297 7.649,-0.6211 15.782,-0.6211 z" /><path
         id="path42"
         style="fill:#2d7d2f;fill-opacity:1;fill-rule:nonzero;stroke:none"
         d="m 1007.7,172.34 c 23.75,0 42.96,-6.949 57.65,-20.781 16.33,-15.309 24.53,-37.258 24.53,-65.7777 0,-20.5508 -7.11,-38.8321 -21.25,-54.8399 -15.93,-18.0508 -36.25,-27.03124 -60.93,-27.03124 -26.68,0 -47.579,8.82034 -62.661,26.55864 -13.129,15.1914 -19.687,33.6328 -19.687,55.3125 0,28.9487 7.968,50.8597 23.91,65.7777 14.449,13.832 33.937,20.781 58.438,20.781 z m 51.71,-86.5587 c 0,18.0077 -4.06,34.2577 -12.18,48.7497 -9.81,17.5 -22.97,26.25 -39.53,26.25 -15.938,0 -28.829,-8.672 -38.598,-25.941 -8.672,-15.231 -12.973,-31.559 -12.973,-49.0587 0,-24.6915 4.922,-42.9727 14.851,-54.8399 8.821,-10.7422 21.09,-16.1016 36.72,-16.1016 15.62,0 27.85,5.1993 36.71,15.629 10,11.9531 15,30.3906 15,55.3125 z" /><path
         id="path44"
         style="fill:#2d7d2f;fill-opacity:1;fill-rule:nonzero;stroke:none"
         d="m 1234.41,165.309 c -1.48,-6.047 -2.46,-12.258 -2.96,-18.59 -0.43,-6.25 -0.63,-13.047 -0.63,-20.309 -1.87,-0.75 -3.87,-0.75 -5.94,0 -3.24,3.942 -5.9,6.871 -7.97,8.75 -4.92,4.141 -10.54,6.25 -16.87,6.25 -5.31,0 -11.09,-2.461 -17.34,-7.351 -6.18,-4.918 -10.28,-10.387 -12.35,-16.399 V 27.3398 c 0,-3.75 3.05,-6.3203 9.22,-7.6484 6.13,-1.3711 12.58,-2.0312 19.38,-2.0312 2.57,0 4.1,0 4.53,0 0.31,0 0.54,0 0.78,0 V 9.53125 h -92.03 v 8.12895 c 6.25,0 10.86,0.0703 13.9,0.3086 9.38,1.1328 14.07,4.0625 14.07,8.75 V 143.281 c 0,1.879 -1.8,3.129 -5.32,3.75 -3.43,0.699 -7.42,1.09 -11.87,1.09 -2.5,0 -4.96,0 -7.35,0 -0.74,0 -1.79,-0.109 -3.12,-0.312 l -0.31,8.75 c 17.69,2.07 36.13,6.882 55.31,14.382 l 2.81,-3.601 v -34.68 c 5.51,8.629 10.24,15.07 14.22,19.371 12.38,12.809 25.23,19.219 38.59,19.219 4.38,0 8.13,-1.988 11.25,-5.941 z" /><path
         id="path46"
         style="fill:#2d7d2f;fill-opacity:1;fill-rule:nonzero;stroke:none"
         d="m 1340.31,172.34 c 17.27,-2.18 31.41,-9.449 42.35,-21.719 10,-11.242 17.11,-26.211 21.4,-44.84 l -42.34,-14.9997 h -76.1 c 0,-15.4297 3.99,-29.6915 12.04,-42.8125 9.06,-14.918 20.35,-22.9297 33.9,-24.0586 1.64,-0.2383 3.28,-0.3204 4.85,-0.3204 1.44,0 2.97,0 4.53,0 9.14,0 17.42,1.0196 24.84,3.129 7.5,2.0703 16.13,5.4726 25.94,10.1601 l 2.19,-2.8203 c -3.36,-9.6094 -9.93,-16.9492 -19.69,-22.0273 -8.67,-4.44927 -19.02,-6.72271 -31.1,-6.72271 -25.93,0 -46.95,6.57031 -62.96,19.69141 -18.44,14.8789 -27.66,36.332 -27.66,64.3789 0,21.6411 7.27,40.9731 21.88,57.9611 14.57,17.07 32.89,25.629 55,25.629 1.24,0 2.81,-0.078 4.68,-0.16 1.88,-0.11 3.95,-0.27 6.25,-0.469 z m -53.9,-68.281 h 84.68 c 0.2,2.07 0.32,3.601 0.32,4.531 0,12.39 -3.13,23.68 -9.38,33.91 -7.3,11.641 -16.33,17.5 -27.03,17.5 -18.12,0 -31.21,-5.738 -39.22,-17.191 -6.25,-9.059 -9.37,-21.989 -9.37,-38.75 z" /><path
         id="path48"
         style="fill:#2d7d2f;fill-opacity:1;fill-rule:nonzero;stroke:none"
         d="M 1618.63,17.6602 V 9.53125 h -56.72 V 119.059 c 0,9.382 -4.02,17.031 -12.03,22.972 -7.93,5.938 -16.99,8.91 -27.18,8.91 -10.55,0 -20.16,-3.211 -28.91,-9.531 -8.75,-6.25 -13.13,-14.379 -13.13,-24.379 V 30.9414 c 0,-5.8594 2.35,-9.6914 7.04,-11.5625 2.81,-1.1797 7.81,-1.7187 15,-1.7187 2.57,0 4.57,0 5.93,0 V 9.53125 h -85 v 8.12895 c 6.25,0.1914 10.94,0.6211 14.07,1.25 9.25,2.1796 13.9,5.9296 13.9,11.25 V 138.75 c 0,3.441 -1.8,6.02 -5.31,7.809 -3.44,1.761 -7.74,2.66 -12.81,2.66 -3.75,0 -7.27,-0.387 -10.47,-1.098 v 9.07 c 18.83,2.809 37.11,7.379 54.84,13.75 l 2.81,-3.601 v -26.559 c 6.96,6.949 12.7,12.11 17.19,15.469 13.52,10.199 25.78,15.309 36.72,15.309 14.88,0 27.7,-3.59 38.44,-10.778 12.19,-8.242 18.28,-18.98 18.28,-32.191 V 28.4414 c 0,-3.5625 2.11,-6.25 6.41,-8.1328 4.37,-1.7891 11.32,-2.6484 20.93,-2.6484 z" /><path
         id="path50"
         style="fill:#2d7d2f;fill-opacity:1;fill-rule:nonzero;stroke:none"
         d="M 1828.32,18.9102 V 9.53125 h -53.91 V 118.441 c 0,9.059 -3.9,16.598 -11.71,22.649 -7.82,6.019 -16.53,9.07 -26.1,9.07 -10.23,0 -20.12,-3.441 -29.69,-10.32 -9.61,-6.871 -14.37,-14.758 -14.37,-23.59 V 29.5313 c 0,-4.4922 4.41,-7.7696 13.28,-9.8399 2.81,-0.7422 7.23,-1.4101 13.28,-2.0312 V 9.53125 h -83.59 v 8.12895 c 6.01,0 10.54,0.1914 13.59,0.6211 9.38,1.6406 14.06,5.039 14.06,10.1601 V 227.66 c 0,4.141 -1.56,7.219 -4.68,9.219 -3.13,1.953 -7.19,2.961 -12.19,2.961 -1.56,0 -3.28,-0.11 -5.16,-0.309 -0.74,0 -2.61,-0.39 -5.62,-1.09 v 9.059 c 9.37,0.941 18.79,2.422 28.28,4.531 4.69,0.938 14.26,3.278 28.75,7.028 V 140.16 c 9.57,9.449 17.38,16.32 23.44,20.621 9.76,6.758 19.45,10.16 29.06,10.16 14.26,0 26.95,-3.402 38.12,-10.16 13.32,-7.929 20,-18.672 20,-32.191 V 29.5313 c 0,-4.9219 4.22,-7.9727 12.66,-9.2227 4.14,-0.4297 8.32,-0.8984 12.5,-1.3984 z" /><path
         id="path52"
         style="fill:#2d7d2f;fill-opacity:1;fill-rule:nonzero;stroke:none"
         d="m 1888.63,245.781 c 5.2,0 9.53,-1.871 12.97,-5.621 3.52,-3.75 5.31,-8.398 5.31,-13.91 0,-5.23 -1.87,-9.609 -5.62,-13.129 -3.75,-3.43 -8.28,-5.152 -13.59,-5.152 -5.43,0 -9.93,1.871 -13.44,5.621 -3.44,3.75 -5.16,8.441 -5.16,14.07 0,5.07 1.88,9.371 5.63,12.809 3.75,3.511 8.36,5.312 13.9,5.312 z M 1930.35,17.6602 V 9.53125 h -80.78 v 8.12895 c 1.56,0 2.81,0 3.75,0 5.63,0 10.63,0.539 15,1.7187 4.45,1.1328 6.72,3.5899 6.72,7.3399 V 133.441 c 0,5.309 -1.84,9.098 -5.47,11.399 -3.55,2.39 -8.4,3.601 -14.53,3.601 -1.56,0 -4.02,-0.242 -7.34,-0.632 v 8.75 c 9.37,1.332 18.67,3.171 27.96,5.472 9.38,2.379 18.48,5.348 27.35,8.91 l 2.81,-3.601 V 26.4102 c 0,-4.3008 2.89,-7 8.75,-8.1289 2.38,-0.4297 7.66,-0.6211 15.78,-0.6211 z" /><path
         id="path54"
         style="fill:#2d7d2f;fill-opacity:1;fill-rule:nonzero;stroke:none"
         d="M 2027.34,17.6602 V 9.53125 h -83.28 v 8.75005 c 2.58,-0.2305 4.73,-0.3125 6.41,-0.3125 5.51,0 9.84,0.5507 12.97,1.7226 4.88,1.8672 7.34,5 7.34,9.3672 V 228.91 c 0,3.121 -2.03,5.391 -6.09,6.871 -3.99,1.559 -8.4,2.34 -13.28,2.34 -3.05,0 -5.24,-0.152 -6.57,-0.461 v 9.84 c 19.57,3.012 38.21,6.879 55.94,11.559 V 29.5313 c 0,-5.4297 4.42,-9.0625 13.28,-10.9415 2.82,-0.4296 7.23,-0.7382 13.28,-0.9296 z" /><path
         id="path56"
         style="fill:#2d7d2f;fill-opacity:1;fill-rule:nonzero;stroke:none"
         d="m 2155.98,257.031 -4.85,-27.34 c -2.61,0 -7.65,1.758 -15.15,5.309 -3.99,1.762 -7.11,2.66 -9.38,2.66 -7.3,0 -13.55,-1.84 -18.75,-5.469 -5.23,-3.562 -7.81,-8.441 -7.81,-14.691 V 160 h 43.75 v -16.41 h -43.75 V 27.3398 c 0,-4.1796 1.76,-6.8281 5.31,-7.9609 3.63,-1.1797 8.83,-1.7187 15.63,-1.7187 4.45,0 7.65,0 9.53,0 V 9.53125 h -87.5 v 8.12895 c 2.26,-0.3204 4.1,-0.4688 5.47,-0.4688 6.32,0 11.25,0.4688 14.68,1.3984 5.63,1.6407 8.44,4.379 8.44,8.129 V 142.809 h -21.72 v 8.75 L 2071.6,160 v 35.309 c 0,11.453 8.63,25.203 25.94,41.25 17.26,16.14 30.55,24.222 39.84,24.222 1.88,0 4.61,-0.472 8.28,-1.402 3.64,-0.938 7.07,-1.719 10.32,-2.348 z" /><path
         id="path58"
         style="fill:#2d7d2f;fill-opacity:1;fill-rule:nonzero;stroke:none"
         d="m 2250.16,172.34 c 17.26,-2.18 31.4,-9.449 42.34,-21.719 10,-11.242 17.11,-26.211 21.41,-44.84 l -42.35,-14.9997 h -76.09 c 0,-15.4297 3.98,-29.6915 12.03,-42.8125 9.06,-14.918 20.35,-22.9297 33.91,-24.0586 1.64,-0.2383 3.28,-0.3204 4.84,-0.3204 1.45,0 2.97,0 4.53,0 9.14,0 17.42,1.0196 24.84,3.129 7.5,2.0703 16.14,5.4726 25.94,10.1601 l 2.19,-2.8203 c -3.36,-9.6094 -9.92,-16.9492 -19.69,-22.0273 -8.67,-4.44927 -19.02,-6.72271 -31.09,-6.72271 -25.94,0 -46.95,6.57031 -62.97,19.69141 -18.44,14.8789 -27.66,36.332 -27.66,64.3789 0,21.6411 7.27,40.9731 21.88,57.9611 14.57,17.07 32.89,25.629 55,25.629 1.25,0 2.81,-0.078 4.69,-0.16 1.87,-0.11 3.94,-0.27 6.25,-0.469 z m -53.91,-68.281 h 84.69 c 0.19,2.07 0.31,3.601 0.31,4.531 0,12.39 -3.13,23.68 -9.37,33.91 -7.31,11.641 -16.33,17.5 -27.04,17.5 -18.12,0 -31.21,-5.738 -39.22,-17.191 -6.24,-9.059 -9.37,-21.989 -9.37,-38.75 z" /></g></g></svg>